<?xml version="1.0" encoding="utf-8"?>
<!DOCTYPE svg PUBLIC "-//W3C//DTD SVG 1.0//EN" "http://www.w3.org/TR/2001/REC-SVG-20010904/DTD/svg10.dtd">
<!-- Uploaded to: SVG Repo, www.svgrepo.com, Generator: SVG Repo Mixer Tools -->
<svg version="1.0" id="Layer_1" xmlns="http://www.w3.org/2000/svg"
	xmlns:xlink="http://www.w3.org/1999/xlink"
	width="800px" height="800px" viewBox="0 0 64 64" enable-background="new 0 0 64 64"
	xml:space="preserve">
	 <defs>
		<radialGradient id="grad1" cx="50%" cy="50%" r="50%" fx="50%" fy="50%">
			<stop offset="25%" stop-color="#F1E486" />
			<stop offset="100%" stop-color="#8B5E23" />
		</radialGradient>
	 </defs>

<ellipse cx="50%" cy="50%" rx="50%" ry="50%" fill="transparent"/>
<g>
	<path fill="url(#grad1)" d="m54 32c0-.553.447-1 1-1h2.975c-.243-6.425-2.815-12.252-6.899-16.661l-2.105 2.104c-.391.391-1.023.391-1.414 0s-.391-1.023 0-1.414l2.104-2.104c-4.41-4.085-10.237-6.656-16.662-6.9v2.975c0 .553-.447 1-1 1s-1-.447-1-1v-2.975c-6.425.243-12.252 2.815-16.661 6.9l2.104 2.104c.391.391.391 1.022 0 1.414-.391.391-1.023.391-1.414 0l-2.104-2.104c-4.084 4.411-6.655 10.238-6.899 16.663h2.974c.553 0 .999.446 1 1 0 .552-.447.999-1 1h-2.974c.244 6.425 2.816 12.251 6.9 16.66l2.104-2.104c.391-.391 1.021-.391 1.414 0 .39.39.39 1.022 0 1.414l-2.104 2.104c4.409 4.084 10.235 6.655 16.66 6.898l.001-2.974c0-.553.446-.999 1-1 .551 0 .998.447 1 1l-.001 2.974c6.425-.243 12.251-2.815 16.66-6.9l-2.104-2.104c-.391-.392-.391-1.023 0-1.415.39-.39 1.022-.39 1.415 0l2.103 2.104c4.085-4.409 6.656-10.235 6.899-16.66h-2.972c-.553.001-1-.446-1-.999zm-10 12c-1 1-2.4.6-3 0l-8-8c-.3-.5-.9-.7-1-.6-2.1-.2-3.6-1.2-3.6-3.4.1-2.5 1.6-3 1.6-3v-15c0-1 1-2 2-2s2 1 2 2v15c1.2.4 1.6 1.7 1.5 3 0 .5 0 .5.5 1l8 8c.7 1.1.9 2 0 3z"/>
	<path fill="url(#grad1)" d="M32,0C14.327,0,0,14.327,0,32s14.327,32,32,32s32-14.327,32-32S49.673,0,32,0z M32,60
		C16.536,60,4,47.464,4,32S16.536,4,32,4s28,12.536,28,28S47.464,60,32,60z"/>
</g>
</svg>